<?xml version="1.0" encoding="utf-8"?>
<!-- Generator: Adobe Illustrator 19.2.1, SVG Export Plug-In . SVG Version: 6.00 Build 0)  -->
<!DOCTYPE svg PUBLIC "-//W3C//DTD SVG 1.1//EN" "http://www.w3.org/Graphics/SVG/1.1/DTD/svg11.dtd">
<svg version="1.1" id="Layer_1" xmlns="http://www.w3.org/2000/svg" xmlns:xlink="http://www.w3.org/1999/xlink" x="0px" y="0px"
	 viewBox="0 0 428.5 127.5" style="enable-background:new 0 0 428.5 127.5;" xml:space="preserve">
<style type="text/css">
	.st0{fill:url(#SVGID_1_);}
	.st1{fill:url(#SVGID_2_);}
	.st2{fill:url(#SVGID_3_);}
	.st3{fill:url(#SVGID_4_);}
	.st4{fill:url(#SVGID_5_);}
	.st5{fill:url(#SVGID_6_);}
	.st6{fill:url(#SVGID_7_);}
	.st7{fill:url(#SVGID_8_);}
	.st8{fill:#F7921E;}
	.st9{fill:#5F646A;}
</style>
<g>
	<g>
		<radialGradient id="SVGID_1_" cx="33.6718" cy="63.2066" r="78.8569" gradientUnits="userSpaceOnUse">
			<stop  offset="0" style="stop-color:#004E9A"/>
			<stop  offset="1" style="stop-color:#232E83"/>
		</radialGradient>
		<path class="st0" d="M84.3,19.6c0.3-1.7,0.2-3.6-0.2-5.6C83.3,9.7,80,2.3,74.7,1c-6.9-0.9-12.1,11.6-6.6,20.6
			C73.4,30.2,82.9,29,84.3,19.6z"/>
		<radialGradient id="SVGID_2_" cx="33.6734" cy="63.2063" r="78.8564" gradientUnits="userSpaceOnUse">
			<stop  offset="0" style="stop-color:#004E9A"/>
			<stop  offset="1" style="stop-color:#232E83"/>
		</radialGradient>
		<path class="st1" d="M6.8,40.5c3.3,1.9,17-15.7,16.8-21.9c0-1.2-0.5-1.7-0.7-1.9c-0.4-0.3-1.2-1-3.2-0.1
			C11.8,20.4,3,38.3,6.8,40.5z"/>
		<radialGradient id="SVGID_3_" cx="33.6734" cy="63.2054" r="78.854" gradientUnits="userSpaceOnUse">
			<stop  offset="0" style="stop-color:#004E9A"/>
			<stop  offset="1" style="stop-color:#232E83"/>
		</radialGradient>
		<path class="st2" d="M14.4,42.8C5.9,46,1.8,53.2,1.3,57.7c-0.1,1.2-0.8,3.9,2.5,7.5c2,2.2,4.2,3.6,6.5,4.8
			c5.2-12.2,19.6-11.4,18.1-22.3C26.9,41.2,20.5,40.6,14.4,42.8z"/>
		<radialGradient id="SVGID_4_" cx="33.6725" cy="63.2057" r="78.8554" gradientUnits="userSpaceOnUse">
			<stop  offset="0" style="stop-color:#004E9A"/>
			<stop  offset="1" style="stop-color:#232E83"/>
		</radialGradient>
		<path class="st3" d="M106.7,47.4c-7.3-9.7-21.3-15.1-34-17c-35.7-3.8-42.7,12.9-36.2,20.9c1.6,2,4.4,3.7,7.8,4
			c6.6,0.5,12.7,1.1,18.5,2.2c13.4,2.6,21.1,9.5,24.9,12.9c6.6,5.9,9.5,6.7,13.1,6.7c3.2,0,9.1-2,10.6-10.4
			C109.3,61.8,107.7,55.2,106.7,47.4z"/>
		<radialGradient id="SVGID_5_" cx="33.6709" cy="63.2033" r="78.8573" gradientUnits="userSpaceOnUse">
			<stop  offset="0" style="stop-color:#004E9A"/>
			<stop  offset="1" style="stop-color:#232E83"/>
		</radialGradient>
		<path class="st4" d="M124.9,70.7c-0.8,1.2-1.7,2.3-2.7,3.3c-1.9,1.7-3.9,1.6-5.8,0.1c-1.2,3.3-2.2,7.6-5.4,11.2c0.1,0,0.1,0,0.2,0
			c5.7,0.7,12.5-1,14.6-8.2C126.4,74,125.9,72,124.9,70.7z"/>
	</g>
	<g>
		<radialGradient id="SVGID_6_" cx="38.9989" cy="39.336" r="92.2639" gradientUnits="userSpaceOnUse">
			<stop  offset="0.35" style="stop-color:#FCB53B"/>
			<stop  offset="0.65" style="stop-color:#F8971D"/>
			<stop  offset="0.8221" style="stop-color:#F7921E"/>
			<stop  offset="0.8797" style="stop-color:#F89B25"/>
			<stop  offset="0.973" style="stop-color:#FCB339"/>
			<stop  offset="0.98" style="stop-color:#FCB53B"/>
		</radialGradient>
		<path class="st5" d="M111.1,85.4c-15.8-2-28.5-12-44-15.7c-29.2-7-38,12.8-37.5,24.2c0.6,12.1,14.8,33.9,45.3,29.3
			c1.2-0.2,2.9-0.6,4.1-0.8c4.3-1.1,5.1-1.4,9.4-3c7.4-3.1,11.2-5.8,16.5-9.9c11-9.7,16.2-17.9,20.8-32.2
			C123.6,84.3,116.8,86.1,111.1,85.4z"/>
		<radialGradient id="SVGID_7_" cx="39" cy="39.3354" r="92.2635" gradientUnits="userSpaceOnUse">
			<stop  offset="0.35" style="stop-color:#FCB53B"/>
			<stop  offset="0.65" style="stop-color:#F8971D"/>
			<stop  offset="0.8221" style="stop-color:#F7921E"/>
			<stop  offset="0.8797" style="stop-color:#F89B25"/>
			<stop  offset="0.973" style="stop-color:#FCB339"/>
			<stop  offset="0.98" style="stop-color:#FCB53B"/>
		</radialGradient>
		<path class="st6" d="M122.2,74c13.3-11.6,1.2-49.3-11.2-50.5c-1.8-0.2-6.5,0.9-4.6,20.6C108.5,66.2,115.9,79.5,122.2,74z"/>
		<radialGradient id="SVGID_8_" cx="39.0004" cy="39.3362" r="92.2612" gradientUnits="userSpaceOnUse">
			<stop  offset="0.35" style="stop-color:#FCB53B"/>
			<stop  offset="0.65" style="stop-color:#F8971D"/>
			<stop  offset="0.8221" style="stop-color:#F7921E"/>
			<stop  offset="0.8797" style="stop-color:#F89B25"/>
			<stop  offset="0.973" style="stop-color:#FCB339"/>
			<stop  offset="0.98" style="stop-color:#FCB53B"/>
		</radialGradient>
		<path class="st7" d="M17.6,74.1c-4.7-3.2-9.7-4.4-13.8-8.9c-3.3-3.6-2.6-6.3-2.5-7.5c0,0-0.8,4.8,0.3,12.8
			C5,89,11.6,94.3,13.4,95.8c2.2,1.9,6,2.8,8.8,0.5C25.8,93.3,28.7,81.8,17.6,74.1z"/>
	</g>
</g>
<path class="st8" d="M425.5,91.8H141.9c-0.4,0-0.7-0.3-0.7-0.7c0-0.4,0.3-0.7,0.7-0.7h283.6c0.4,0,0.7,0.3,0.7,0.7
	C426.2,91.5,425.9,91.8,425.5,91.8z"/>
<g>
	<path class="st9" d="M145.5,101c0.8,0,1.6,0.2,2.5,0.4l0.7,0.2l-0.3,1.6l-0.7-0.2c-0.8-0.2-1.4-0.4-2-0.4c-1.5,0-2.4,0.9-2.4,3
		c0,2,0.9,2.9,2.4,2.9c0.6,0,1.3-0.1,2-0.4l0.7-0.2l0.3,1.6l-0.7,0.2c-0.9,0.3-1.7,0.5-2.5,0.4c-2.5,0-4.3-1.5-4.3-4.6
		C141.2,102.6,143,101,145.5,101z"/>
	<path class="st9" d="M153.1,110.3c-2,0-3.3-1.3-3.3-3.4c0-2.2,1.3-3.4,3.3-3.4c2,0,3.3,1.2,3.3,3.4
		C156.4,109,155.1,110.3,153.1,110.3z M153.1,104.7c-1,0-1.6,0.8-1.6,2.2c0,1.4,0.6,2.2,1.6,2.2c1,0,1.6-0.8,1.6-2.2
		C154.7,105.5,154.1,104.7,153.1,104.7z"/>
	<path class="st9" d="M159.6,110.2h-1.7v-5.4c0-0.6,0.3-0.9,0.9-1.1c0.7-0.2,1.4-0.3,2-0.3c0.8,0,1.4,0.2,1.8,0.5
		c0.6-0.3,1.3-0.5,2.1-0.5c1.8,0,2.5,0.9,2.5,2.3v4.4h-1.7v-4.3c0-0.6-0.3-1.1-1-1.1c-0.5,0-0.9,0.1-1.2,0.3
		c0.1,0.2,0.1,0.4,0.1,0.7v4.4h-1.7v-4.3c0-0.6-0.2-1.1-1-1.1c-0.3,0-0.6,0-1.1,0.2V110.2z"/>
	<path class="st9" d="M169.1,112.5v-7.7c0-0.6,0.3-0.9,0.8-1.1c0.9-0.3,1.5-0.3,2.1-0.3c2,0,3.2,1.3,3.2,3.4c0,2.2-1,3.4-3,3.4
		c-0.5,0-1-0.1-1.5-0.3v2.2L169.1,112.5z M173.6,106.8c0-1.3-0.5-2-1.6-2c-0.5,0-0.7,0.1-1.2,0.2v3.7c0.7,0.2,1,0.2,1.3,0.2
		C173.1,108.9,173.6,108.1,173.6,106.8z"/>
	<path class="st9" d="M180.6,104.8c-0.8,0-1.5,0.1-2.1,0.2v5.1h-1.7v-5.4c0-0.6,0.3-0.9,0.9-1.1c0.9-0.2,1.6-0.3,3-0.3V104.8z"/>
	<path class="st9" d="M184.7,103.4c1.9,0,3.1,1,3.1,3.3c0,0.5-0.2,0.7-0.7,0.7h-3.9c0.1,1,0.8,1.5,1.8,1.5c0.6,0,1.1-0.1,1.8-0.3
		l0.6-0.2l0.2,1.3l-0.6,0.2c-0.8,0.3-1.5,0.4-2.2,0.4c-2,0-3.3-1.1-3.3-3.4C181.5,104.5,183,103.4,184.7,103.4z M184.7,104.6
		c-0.9,0-1.4,0.6-1.5,1.6h3C186.1,105.4,185.7,104.6,184.7,104.6z"/>
	<path class="st9" d="M191.1,105.1v5.1h-1.7V101l1.7-0.3v3c0.5-0.2,1.1-0.3,1.6-0.3c1.9,0,2.5,1,2.5,2.4v4.4h-1.7V106
		c0-0.6-0.3-1.1-1.1-1.1C192.1,104.9,191.8,104.9,191.1,105.1z"/>
	<path class="st9" d="M199.8,103.4c1.9,0,3.1,1,3.1,3.3c0,0.5-0.2,0.7-0.7,0.7h-3.9c0.1,1,0.8,1.5,1.8,1.5c0.6,0,1.1-0.1,1.8-0.3
		l0.6-0.2l0.2,1.3l-0.7,0.2c-0.8,0.3-1.5,0.4-2.2,0.4c-2,0-3.3-1.1-3.3-3.4C196.6,104.5,198.1,103.4,199.8,103.4z M199.8,104.6
		c-0.9,0-1.4,0.6-1.5,1.6h3C201.3,105.4,200.8,104.6,199.8,104.6z"/>
	<path class="st9" d="M206.2,110.2h-1.7v-5.4c0-0.6,0.3-0.9,0.9-1.1c0.9-0.3,1.6-0.3,2.2-0.3c2,0,2.7,1,2.7,2.4v4.4h-1.7V106
		c0-0.6-0.3-1.1-1.1-1.1c-0.3,0-0.6,0-1.3,0.2V110.2z"/>
	<path class="st9" d="M215.6,106.3c1.2,0.2,1.9,0.8,1.9,1.9c0,1.4-1.1,2.1-2.6,2.1c-0.9,0-1.6-0.1-2.4-0.4l-0.6-0.2l0.2-1.3l0.6,0.2
		c0.7,0.2,1.4,0.4,2.1,0.4c0.5,0,1-0.2,1-0.7c0-0.4-0.2-0.6-0.8-0.7l-1.2-0.2c-1.2-0.2-1.9-0.8-1.9-1.9c0-1.4,1.1-2.1,2.6-2.1
		c0.9,0,1.5,0.1,2.4,0.4l0.6,0.2l-0.2,1.3l-0.6-0.2c-0.7-0.2-1.4-0.4-2.1-0.4c-0.5,0-1,0.2-1,0.7c0,0.4,0.2,0.6,0.8,0.7L215.6,106.3
		z"/>
	<path class="st9" d="M220,102.6c-0.6,0-1-0.4-1-0.9c0-0.5,0.4-0.9,1-0.9c0.6,0,1,0.4,1,0.9C221,102.3,220.6,102.6,220,102.6z
		 M219.2,110.2v-6.7h1.7v6.7H219.2z"/>
	<path class="st9" d="M226.5,109.6c-0.1,0.5-0.6,0.8-1.2,0.8c-0.6,0-1-0.3-1.2-0.8l-2-6.1h1.8l1.5,4.9l1.5-4.9h1.8L226.5,109.6z"/>
	<path class="st9" d="M232.6,103.4c1.9,0,3.1,1,3.1,3.3c0,0.5-0.2,0.7-0.7,0.7h-3.9c0.1,1,0.8,1.5,1.8,1.5c0.6,0,1.1-0.1,1.8-0.3
		l0.6-0.2l0.2,1.3l-0.7,0.2c-0.8,0.3-1.5,0.4-2.2,0.4c-2,0-3.3-1.1-3.3-3.4C229.4,104.5,230.9,103.4,232.6,103.4z M232.5,104.6
		c-0.9,0-1.4,0.6-1.5,1.6h3C234,105.4,233.6,104.6,232.5,104.6z"/>
	<path class="st9" d="M243.7,108.9c0.4,0,1-0.1,1.5-0.3l0.5-0.2l0.2,1.4l-0.6,0.2c-0.7,0.2-1.3,0.3-1.9,0.3c-1.9,0-3.2-1.1-3.2-3.4
		c0-2.2,1.3-3.4,3.2-3.4c0.6,0,1.2,0.1,1.9,0.3l0.6,0.2l-0.2,1.4l-0.5-0.2c-0.6-0.2-1.1-0.3-1.5-0.3c-1.1,0-1.6,0.6-1.6,2
		C242.1,108.2,242.6,108.9,243.7,108.9z"/>
	<path class="st9" d="M253.2,110.4l-0.6-0.3c-0.3-0.2-0.6-0.2-1-0.1l-0.4,0.1c-0.6,0.1-1.2,0.2-1.7,0.2c-1.5,0-2.4-0.7-2.4-1.9
		c0-1.7,1.5-2.1,3.2-2.1h1.1v-0.5c0-0.7-0.5-1-1.2-1c-0.5,0-1.3,0.1-2,0.4l-0.7,0.2l-0.2-1.3l0.6-0.2c0.9-0.3,1.7-0.4,2.4-0.4
		c1.5,0,2.6,0.6,2.6,2.3v3.1l0.7,0.4L253.2,110.4z M251.5,107.4h-1.4c-0.8,0-1.2,0.2-1.2,0.9c0,0.5,0.4,0.8,1,0.8
		c0.3,0,0.7-0.1,1.1-0.2l0.5-0.1V107.4z"/>
	<path class="st9" d="M259,104.8c-0.8,0-1.5,0.1-2.1,0.2v5.1h-1.7v-5.4c0-0.6,0.3-0.9,0.9-1.1c0.9-0.2,1.6-0.3,2.9-0.3V104.8z"/>
	<path class="st9" d="M263.1,103.4c1.9,0,3.1,1,3.1,3.3c0,0.5-0.2,0.7-0.7,0.7h-3.9c0.1,1,0.8,1.5,1.8,1.5c0.6,0,1.1-0.1,1.8-0.3
		l0.6-0.2l0.2,1.3l-0.7,0.2c-0.8,0.3-1.5,0.4-2.2,0.4c-2,0-3.3-1.1-3.3-3.4C259.9,104.5,261.3,103.4,263.1,103.4z M263,104.6
		c-0.9,0-1.4,0.6-1.5,1.6h3C264.5,105.4,264,104.6,263,104.6z"/>
	<path class="st9" d="M268.5,110.3c-0.6,0-1-0.4-1-1c0-0.6,0.4-0.9,1-0.9c0.6,0,1,0.4,1,0.9C269.5,110,269.1,110.3,268.5,110.3z"/>
	<path class="st9" d="M280,101.1h2v5.8c0,2.2-1.3,3.5-3.8,3.5c-2.5,0-3.8-1.3-3.8-3.5v-5.8h2v5.8c0,1.1,0.6,1.8,1.8,1.8
		c1.2,0,1.8-0.6,1.8-1.8V101.1z"/>
	<path class="st9" d="M285.6,110.2h-1.7v-5.4c0-0.6,0.3-0.9,0.9-1.1c0.9-0.3,1.6-0.3,2.2-0.3c2,0,2.7,1,2.7,2.4v4.4H288V106
		c0-0.6-0.3-1.1-1.1-1.1c-0.3,0-0.6,0-1.3,0.2V110.2z"/>
	<path class="st9" d="M294.5,108.9c0.4,0,1-0.1,1.5-0.3l0.5-0.2l0.2,1.4l-0.6,0.2c-0.7,0.2-1.3,0.3-1.9,0.3c-1.9,0-3.2-1.1-3.2-3.4
		c0-2.2,1.3-3.4,3.2-3.4c0.6,0,1.2,0.1,1.9,0.3l0.6,0.2l-0.2,1.4l-0.5-0.2c-0.6-0.2-1.1-0.3-1.5-0.3c-1.1,0-1.6,0.6-1.6,2
		C292.9,108.2,293.5,108.9,294.5,108.9z"/>
	<path class="st9" d="M301.2,110.3c-2,0-3.3-1.3-3.3-3.4c0-2.2,1.3-3.4,3.3-3.4c2,0,3.3,1.2,3.3,3.4
		C304.5,109,303.2,110.3,301.2,110.3z M301.2,104.7c-1,0-1.6,0.8-1.6,2.2c0,1.4,0.6,2.2,1.6,2.2c1,0,1.6-0.8,1.6-2.2
		C302.8,105.5,302.2,104.7,301.2,104.7z"/>
	<path class="st9" d="M307.8,110.2h-1.7v-5.4c0-0.6,0.3-0.9,0.9-1.1c0.7-0.2,1.4-0.3,2-0.3c0.8,0,1.4,0.2,1.8,0.5
		c0.6-0.3,1.4-0.5,2.1-0.5c1.8,0,2.5,0.9,2.5,2.3v4.4h-1.7v-4.3c0-0.6-0.3-1.1-1-1.1c-0.5,0-0.9,0.1-1.2,0.3
		c0.1,0.2,0.1,0.4,0.1,0.7v4.4h-1.7v-4.3c0-0.6-0.2-1.1-1-1.1c-0.3,0-0.6,0-1.1,0.2V110.2z"/>
	<path class="st9" d="M317.2,112.5v-7.7c0-0.6,0.3-0.9,0.8-1.1c0.9-0.3,1.5-0.3,2.1-0.3c2,0,3.2,1.3,3.2,3.4c0,2.2-1,3.4-3,3.4
		c-0.5,0-1-0.1-1.5-0.3v2.2L317.2,112.5z M321.7,106.8c0-1.3-0.5-2-1.6-2c-0.5,0-0.7,0.1-1.2,0.2v3.7c0.7,0.2,1,0.2,1.2,0.2
		C321.3,108.9,321.7,108.1,321.7,106.8z"/>
	<path class="st9" d="M328.8,104.8c-0.8,0-1.5,0.1-2.1,0.2v5.1H325v-5.4c0-0.6,0.3-0.9,0.9-1.1c0.9-0.2,1.6-0.3,3-0.3V104.8z"/>
	<path class="st9" d="M332.9,110.3c-2,0-3.3-1.3-3.3-3.4c0-2.2,1.3-3.4,3.3-3.4c2,0,3.3,1.2,3.3,3.4
		C336.3,109,335,110.3,332.9,110.3z M332.9,104.7c-1,0-1.5,0.8-1.5,2.2c0,1.4,0.6,2.2,1.6,2.2c1,0,1.6-0.8,1.6-2.2
		C334.6,105.5,334,104.7,332.9,104.7z"/>
	<path class="st9" d="M339.5,110.2h-1.7v-5.4c0-0.6,0.3-0.9,0.9-1.1c0.8-0.2,1.4-0.3,2-0.3c0.8,0,1.4,0.2,1.8,0.5
		c0.6-0.3,1.3-0.5,2.1-0.5c1.8,0,2.5,0.9,2.5,2.3v4.4h-1.7v-4.3c0-0.6-0.3-1.1-1-1.1c-0.5,0-0.9,0.1-1.2,0.3
		c0.1,0.2,0.1,0.4,0.1,0.7v4.4h-1.7v-4.3c0-0.6-0.2-1.1-1-1.1c-0.3,0-0.6,0-1.1,0.2V110.2z"/>
	<path class="st9" d="M349.8,102.6c-0.6,0-1-0.4-1-0.9c0-0.5,0.4-0.9,1-0.9c0.6,0,1,0.4,1,0.9C350.8,102.3,350.4,102.6,349.8,102.6z
		 M349,110.2v-6.7h1.7v6.7H349z"/>
	<path class="st9" d="M356,106.3c1.2,0.2,1.9,0.8,1.9,1.9c0,1.4-1.1,2.1-2.6,2.1c-0.9,0-1.6-0.1-2.4-0.4l-0.6-0.2l0.2-1.3l0.6,0.2
		c0.7,0.2,1.4,0.4,2.1,0.4c0.5,0,1-0.2,1-0.7c0-0.4-0.2-0.6-0.8-0.7l-1.2-0.2c-1.2-0.2-1.9-0.8-1.9-1.9c0-1.4,1.1-2.1,2.6-2.1
		c0.8,0,1.5,0.1,2.4,0.4l0.6,0.2l-0.2,1.3l-0.6-0.2c-0.7-0.2-1.4-0.4-2.1-0.4c-0.5,0-1,0.2-1,0.7c0,0.4,0.2,0.6,0.8,0.7L356,106.3z"
		/>
	<path class="st9" d="M360.4,102.6c-0.6,0-1-0.4-1-0.9c0-0.5,0.4-0.9,1-0.9c0.6,0,1,0.4,1,0.9C361.4,102.3,361,102.6,360.4,102.6z
		 M359.6,110.2v-6.7h1.7v6.7H359.6z"/>
	<path class="st9" d="M364.8,110.2h-1.7v-5.4c0-0.6,0.3-0.9,0.9-1.1c0.9-0.3,1.6-0.3,2.2-0.3c2,0,2.7,1,2.7,2.4v4.4h-1.7V106
		c0-0.6-0.3-1.1-1.1-1.1c-0.3,0-0.6,0-1.3,0.2V110.2z"/>
	<path class="st9" d="M370.9,109.3l0.6-0.7c0.2-0.2,0.2-0.4,0.2-0.6c0-0.3-0.1-0.4-0.4-0.7c-0.4-0.3-0.9-0.7-0.9-1.6
		c0-1.5,1.2-2.1,2.9-2.1h0.7c0.6,0,1-0.1,1.2-0.1l1.6-0.5l0.3,1.2l-1.2,0.3c0,0,0.5,0.4,0.5,1.2c0,1.4-1.1,2.1-2.9,2.1
		c-0.4,0-0.6,0-0.6,0c0,0.1,0.1,0.2,0.1,0.4c0,0.2-0.1,0.4-0.2,0.6h1.9c1.6,0,2.3,0.7,2.3,1.7c0,1.3-1.1,2.1-3.5,2.1
		c-1.7,0-3.1-0.5-3.1-1.9C370.4,110,370.7,109.5,370.9,109.3z M374.6,109.8h-2.4c-0.1,0.2-0.3,0.4-0.3,0.7c0,0.6,0.6,0.8,1.6,0.8
		c1.3,0,1.9-0.3,1.9-0.9C375.5,110,375.2,109.8,374.6,109.8z M373.4,104.7c-0.8,0-1.4,0.3-1.4,1c0,0.8,0.6,1,1.4,1
		c0.8,0,1.4-0.3,1.4-1C374.8,104.9,374.2,104.7,373.4,104.7z"/>
	<path class="st9" d="M381.6,106.9c0-2.1,1.2-3.4,3.2-3.4c0.6,0,1.3,0.1,2.1,0.3c0.6,0.2,0.8,0.5,0.8,1.1v7.4l-1.7,0.3V110
		c-0.5,0.2-1.1,0.3-1.5,0.3C382.5,110.3,381.6,109,381.6,106.9z M386.1,108.7V105c-0.7-0.2-0.9-0.2-1.2-0.2c-1.2,0-1.6,0.8-1.6,2
		c0,1.3,0.4,2,1.6,2C385.1,108.9,385.4,108.8,386.1,108.7z"/>
	<path class="st9" d="M393.7,103.5h1.7v5.4c0,0.6-0.3,0.9-0.9,1.1c-0.9,0.3-1.6,0.3-2.2,0.3c-2,0-2.7-1-2.7-2.4v-4.4h1.7v4.2
		c0,0.6,0.3,1.1,1.1,1.1c0.3,0,0.6,0,1.3-0.2V103.5z"/>
	<path class="st9" d="M403,110.4l-0.6-0.3c-0.3-0.2-0.6-0.2-1-0.1L401,110c-0.6,0.1-1.2,0.2-1.7,0.2c-1.5,0-2.3-0.7-2.3-1.9
		c0-1.7,1.5-2.1,3.2-2.1h1.1v-0.5c0-0.7-0.5-1-1.2-1c-0.5,0-1.3,0.1-2,0.4l-0.7,0.2l-0.2-1.3l0.6-0.2c0.9-0.3,1.7-0.4,2.4-0.4
		c1.5,0,2.6,0.6,2.6,2.3v3.1l0.7,0.4L403,110.4z M401.3,107.4h-1.4c-0.8,0-1.2,0.2-1.2,0.9c0,0.5,0.4,0.8,1,0.8
		c0.3,0,0.7-0.1,1.1-0.2l0.5-0.1V107.4z"/>
	<path class="st9" d="M404.9,110.2v-9.2l1.7-0.3v9.5H404.9z"/>
	<path class="st9" d="M409.3,102.6c-0.6,0-1-0.4-1-0.9c0-0.5,0.4-0.9,1-0.9c0.6,0,1,0.4,1,0.9C410.3,102.3,409.9,102.6,409.3,102.6z
		 M408.5,110.2v-6.7h1.7v6.7H408.5z"/>
	<path class="st9" d="M416.2,110c-0.6,0.2-1.2,0.3-1.6,0.3c-1.5,0-2.3-0.8-2.3-2.5v-3h-0.9v-1.3h0.9v-1.4l1.7-0.3v1.7h2v1.3h-2v3.1
		c0,0.6,0.2,1,0.9,1c0.3,0,0.7-0.1,1.1-0.2L416.2,110z"/>
	<path class="st9" d="M417.5,112.2l0.2-1.3c0.5,0.1,0.8,0.2,1.2,0.2c0.6,0,0.7-0.3,0.8-0.6l0.1-0.3l-2.6-6.8h1.9l1.6,4.8l1.4-4.8
		h1.8l-2.3,6.9c-0.5,1.3-1,2.1-2.4,2.1C418.6,112.4,418.1,112.4,417.5,112.2z"/>
	<path class="st9" d="M425.2,110.3c-0.6,0-1-0.4-1-1c0-0.6,0.4-0.9,1-0.9c0.6,0,1,0.4,1,0.9C426.2,110,425.8,110.3,425.2,110.3z"/>
</g>
<g>
	<g>
		<path class="st9" d="M143.9,76.9h-2.6V51c0-1.4,0.8-2,1.9-2c0.9,0,1.6,0.4,2.1,1.2L160.1,73V49.2h2.6v25.9c0,1.4-0.8,2-1.9,2
			c-0.9,0-1.6-0.4-2.1-1.2l-14.8-22.9V76.9z"/>
		<path class="st9" d="M165.5,66.8c0-7.3,4.3-10.5,9.2-10.5c5.4,0,9.1,3.2,9.1,9.9c0,1-0.5,1.7-1.6,1.7h-13.8c0.2,4.5,3.2,6.6,7,6.6
			c1.4,0,3-0.3,5.5-1l2-0.6l0.6,2.5l-2,0.6c-2.8,0.9-4.4,1.2-6.3,1.2C169.5,77.1,165.5,73.8,165.5,66.8z M174.6,58.7
			c-3.7,0-6.1,2.6-6.3,6.8h12.6C180.9,61.8,179,58.7,174.6,58.7z"/>
		<path class="st9" d="M197.6,76.5c-2,0.4-3.3,0.6-4.3,0.6c-3.9,0-5.8-2.2-5.8-6.4V59.5h-3.2V57h3.2v-5.1l2.7-0.6V57h6.9v2.5h-6.9
			v11c0,2.8,0.9,4.1,3.2,4.1c0.8,0,1.8-0.1,3.8-0.6L197.6,76.5z"/>
		<path class="st9" d="M221.4,75.6c-0.2,1.1-1,1.7-2.1,1.7c-1,0-1.7-0.5-2.1-1.5L212.1,60l-5.4,15.8c-0.3,1-1,1.5-2.1,1.5
			c-1.1,0-1.9-0.6-2.1-1.6l-3.8-18.9h2.9l3.2,17.4l5.5-16.3c0.3-0.8,0.8-1.2,1.7-1.2c0.9,0,1.5,0.4,1.8,1.2l5.5,16.4l3.4-17.5h2.8
			L221.4,75.6z"/>
		<path class="st9" d="M236.1,77.1c-5.8,0-9.4-3.8-9.4-10.3c0-6.6,3.8-10.3,9.6-10.3c5.8,0,9.4,3.7,9.4,10.3
			C245.6,73.4,241.8,77.1,236.1,77.1z M236.1,58.8c-4.3,0-6.6,2.9-6.6,8c0,5.1,2.5,8,6.7,8c4.3,0,6.6-2.9,6.6-8
			C242.8,61.8,240.3,58.8,236.1,58.8z"/>
		<path class="st9" d="M258.4,59.2c-2.5,0-4.8,0.1-7.3,0.8v17h-2.8V60.1c0-1.5,0.8-2.3,2.2-2.7c2.8-0.8,4.5-0.9,7.9-0.9V59.2z"/>
		<path class="st9" d="M273.9,76.9l-6.1-11.2l-2.4,2.3c-1.5,1.5-2.6,2.7-2.6,5.4v3.5h-2.7V48.8l2.7-0.6v19.6l10.3-11.2h3.6l-6.7,7.1
			l7.1,13.2H273.9z"/>
	</g>
	<g>
		<path class="st9" d="M141.2,42.5v-28h6.2v28H141.2z"/>
		<path class="st9" d="M150.5,32.3v-4.1h12.7v4.1H150.5z"/>
		<path class="st9" d="M195.7,42.5h-5.5V22.1l-6.1,18.4c-0.4,1.5-1.5,2.2-3.3,2.2c-1.8,0-2.9-0.8-3.4-2.2l-5.9-18.4v20.4h-5.3V18.2
			c0-2.6,1.8-3.9,4.6-3.9c3.1,0,4.4,1.5,5.1,3.7l5,16.1l5.3-16.1c0.7-2.1,1.8-3.7,5-3.7c2.7,0,4.5,1.3,4.5,3.9V42.5z"/>
		<path class="st9" d="M202.9,42.5c-2.2,0-3.5-1.2-3.5-3.3V17.8c0-2,1.3-3.3,3.5-3.3H219v4.6h-13.6V26h11.9v4.4h-11.9v7.5h13.6v4.6
			H202.9z"/>
		<path class="st9" d="M232.3,42.5h-7.2c-2.2,0-3.5-1.2-3.5-3.3V17.8c0-2,1.3-3.3,3.5-3.3h7.3c8,0,13.1,5.2,13.1,14.1
			C245.5,37.5,240.2,42.5,232.3,42.5z M231.9,19.2h-4.2v18.6h4.4c4.6,0,7.3-3.2,7.3-9.2C239.5,22.8,236.7,19.2,231.9,19.2z"/>
	</g>
	<path class="st9" d="M275.5,41l-4.4-10.3h-6.2V41h-6.1V16.3c0-2,1.4-3.3,3.5-3.3h9.7c5.4,0,8.7,2.9,8.7,8.1c0,2.3-1,4.2-2.3,5.8
		l-1.7,2.1l5.4,12H275.5z M271,17.4h-6.1v8.8h7.3l1.1-1.5c0.8-1,1.4-2.1,1.4-3.5C274.7,19,273.6,17.4,271,17.4z"/>
	<path class="st9" d="M300.8,41.5l-1.8-1c-0.9-0.5-1.9-0.6-3-0.3l-1.2,0.3c-1.7,0.4-3.8,0.8-5.3,0.8c-4.5,0-7.2-2.2-7.2-6
		c0-5.4,4.6-6.4,9.8-6.4h3.5v-1.4c0-2.3-1.5-3.1-3.7-3.1c-1.7,0-3.9,0.4-6.1,1.1l-2.1,0.6l-0.7-4.1l1.9-0.6c2.6-0.8,5.1-1.3,7.5-1.3
		c4.6,0,8.1,1.9,8.1,7.1v9.5l2.3,1.4L300.8,41.5z M295.5,32.4h-4.4c-2.4,0-3.8,0.8-3.8,2.7c0,1.7,1.2,2.5,3.1,2.5
		c0.9,0,2.1-0.2,3.5-0.5l1.6-0.4V32.4z"/>
</g>
<path class="st9" d="M321.8,11.5v25.2c0,1.8-0.8,2.8-2.6,3.2c-2.8,0.8-4.7,0.9-6.6,0.9c-6.2,0-9.8-3.8-9.8-10.4
	c0-6.7,3.2-10.6,9.3-10.6c1.5,0,2.9,0.4,4.5,0.8v-8.3C318.4,12.1,320.1,11.8,321.8,11.5z M308,30.4c0,3.9,1.5,6.3,5,6.3
	c1.1,0,1.8-0.1,3.7-0.5V24.8c-2.1-0.6-3-0.7-3.8-0.7C309.4,24.1,308,26.4,308,30.4z"/>
<path class="st9" d="M327.5,17.3c-1.9,0-3-1.1-3-2.8c0-1.7,1.1-2.8,3-2.8s3,1.1,3,2.8C330.5,16.2,329.4,17.3,327.5,17.3z
	 M324.9,40.6V19.9h5.1v20.7H324.9z"/>
<path class="st9" d="M342.3,40.9c-6.3,0-10.1-3.8-10.1-10.6c0-6.8,4-10.6,10.2-10.6c6.2,0,10.1,3.8,10.1,10.6
	C352.5,37.1,348.5,40.9,342.3,40.9z M342.3,23.6c-3.2,0-4.8,2.4-4.8,6.7c0,4.4,1.7,6.7,4.9,6.7c3.2,0,4.8-2.3,4.8-6.7
	C347.2,26,345.4,23.6,342.3,23.6z"/>
<path class="st9" d="M354.7,40.6V12.4l5.3-1v29.2H354.7z"/>
<path class="st9" d="M372.3,40.9c-6.3,0-10.1-3.8-10.1-10.6c0-6.8,4-10.6,10.2-10.6c6.2,0,10.1,3.8,10.1,10.6
	C382.5,37.1,378.5,40.9,372.3,40.9z M372.3,23.6c-3.2,0-4.8,2.4-4.8,6.7c0,4.4,1.7,6.7,4.9,6.7c3.2,0,4.8-2.3,4.8-6.7
	C377.2,26,375.4,23.6,372.3,23.6z"/>
<path class="st9" d="M385.5,37.7l1.7-2.2c0.5-0.6,0.7-1.2,0.7-1.7c0-0.8-0.3-1.4-1.2-2c-1.2-0.9-2.8-2.3-2.8-5.1
	c0-4.5,3.6-6.6,9.1-6.6h2.1c1.8,0,3-0.2,3.8-0.4l4.9-1.4l0.9,3.8l-3.7,1.1c0,0,1.5,1.1,1.5,3.5c0,4.3-3.4,6.3-9,6.3
	c-1.1,0-1.8-0.2-1.8-0.2c0.2,0.2,0.3,0.6,0.3,1.2c0,0.6-0.2,1.2-0.6,1.7h5.9c4.8,0,7,2,7,5.2c0,4.1-3.5,6.5-10.7,6.5
	c-5.3,0-9.5-1.6-9.5-5.8C384,39.9,384.8,38.6,385.5,37.7z M396.9,39.3h-7.4c-0.5,0.5-0.8,1.3-0.8,2.2c0,1.8,2,2.5,5.1,2.5
	c4,0,5.9-1,5.9-2.9C399.6,40,398.8,39.3,396.9,39.3z M393.1,23.6c-2.6,0-4.3,0.9-4.3,3.1c0,2.3,1.7,3.2,4.3,3.2
	c2.5,0,4.4-0.9,4.4-3.2C397.5,24.4,395.7,23.6,393.1,23.6z"/>
<path class="st9" d="M406.9,46.7l0.6-3.9c1.5,0.4,2.5,0.7,3.6,0.7c1.7,0,2.2-0.8,2.5-1.8l0.3-0.9l-8.1-20.8h5.8l4.9,14.8l4.2-14.8
	h5.5l-7.1,21.2c-1.4,4.1-3.1,6.3-7.4,6.3C410.2,47.5,408.9,47.2,406.9,46.7z"/>
</svg>
