<?xml version="1.0" encoding="utf-8"?>
<!-- Generator: Adobe Illustrator 19.2.1, SVG Export Plug-In . SVG Version: 6.00 Build 0)  -->
<!DOCTYPE svg PUBLIC "-//W3C//DTD SVG 1.1//EN" "http://www.w3.org/Graphics/SVG/1.1/DTD/svg11.dtd">
<svg version="1.1" id="Layer_1" xmlns="http://www.w3.org/2000/svg" xmlns:xlink="http://www.w3.org/1999/xlink" x="0px" y="0px"
	 viewBox="0 0 155.5 123.3" style="enable-background:new 0 0 155.5 123.3;" xml:space="preserve">
<style type="text/css">
	.st0{fill:url(#SVGID_1_);}
	.st1{fill:url(#SVGID_2_);}
	.st2{fill:url(#SVGID_3_);}
	.st3{fill:url(#SVGID_4_);}
	.st4{fill:url(#SVGID_5_);}
	.st5{fill:url(#SVGID_6_);}
	.st6{fill:url(#SVGID_7_);}
	.st7{fill:url(#SVGID_8_);}
	.st8{fill:#5F646A;}
</style>
<g>
	<g>
		
			<radialGradient id="SVGID_1_" cx="59.7086" cy="572.7551" r="46.5746" gradientTransform="matrix(1 0 0 1 0 -534)" gradientUnits="userSpaceOnUse">
			<stop  offset="0" style="stop-color:#004E9A"/>
			<stop  offset="1" style="stop-color:#232E83"/>
		</radialGradient>
		<path class="st0" d="M89.6,13c0.1-1.1,0.1-2.2-0.1-3.2C88.9,7.2,87,2.8,83.9,2c-4.1-0.5-7.2,6.9-3.9,12.2
			C83.2,19.2,88.8,18.5,89.6,13z"/>
		
			<radialGradient id="SVGID_2_" cx="59.7101" cy="572.756" r="46.5745" gradientTransform="matrix(1 0 0 1 0 -534)" gradientUnits="userSpaceOnUse">
			<stop  offset="0" style="stop-color:#004E9A"/>
			<stop  offset="1" style="stop-color:#232E83"/>
		</radialGradient>
		<path class="st1" d="M43.8,25.3c1.9,1.1,10-9.3,9.9-13c0-0.7-0.3-0.9-0.4-1.1c-0.3-0.1-0.7-0.5-1.9,0
			C46.8,13.4,41.6,24.1,43.8,25.3z"/>
		
			<radialGradient id="SVGID_3_" cx="59.7111" cy="572.7539" r="46.5695" gradientTransform="matrix(1 0 0 1 0 -534)" gradientUnits="userSpaceOnUse">
			<stop  offset="0" style="stop-color:#004E9A"/>
			<stop  offset="1" style="stop-color:#232E83"/>
		</radialGradient>
		<path class="st2" d="M48.3,26.7c-5,1.9-7.4,6.1-7.7,8.8c0,0.7-0.4,2.3,1.5,4.5c1.2,1.4,2.4,2.2,3.8,2.8
			c3.1-7.2,11.6-6.8,10.7-13.1C55.7,25.7,51.9,25.3,48.3,26.7z"/>
		
			<radialGradient id="SVGID_4_" cx="59.7108" cy="572.7546" r="46.5705" gradientTransform="matrix(1 0 0 1 0 -534)" gradientUnits="userSpaceOnUse">
			<stop  offset="0" style="stop-color:#004E9A"/>
			<stop  offset="1" style="stop-color:#232E83"/>
		</radialGradient>
		<path class="st3" d="M102.8,29.4c-4.3-5.7-12.6-8.9-20-10c-21.1-2.2-25.2,7.6-21.4,12.3c0.9,1.2,2.6,2.2,4.6,2.3
			c3.9,0.3,7.4,0.7,11,1.4c8,1.5,12.5,5.7,14.6,7.6c3.9,3.5,5.6,3.9,7.7,3.9c1.9,0,5.4-1.2,6.2-6.1C104.5,37.9,103.4,34,102.8,29.4z
			"/>
		
			<radialGradient id="SVGID_5_" cx="59.7065" cy="572.7562" r="46.5745" gradientTransform="matrix(1 0 0 1 0 -534)" gradientUnits="userSpaceOnUse">
			<stop  offset="0" style="stop-color:#004E9A"/>
			<stop  offset="1" style="stop-color:#232E83"/>
		</radialGradient>
		<path class="st4" d="M113.5,43.2c-0.4,0.7-0.9,1.4-1.6,1.9c-1.1,0.9-2.3,0.9-3.4,0c-0.7,1.9-1.4,4.5-3.2,6.6h0.1
			c3.4,0.4,7.3-0.7,8.7-4.9C114.5,45.1,114.2,43.9,113.5,43.2z"/>
	</g>
	<g>
		
			<radialGradient id="SVGID_6_" cx="62.8572" cy="558.6574" r="54.4896" gradientTransform="matrix(1 0 0 1 0 -534)" gradientUnits="userSpaceOnUse">
			<stop  offset="0.35" style="stop-color:#FCB53B"/>
			<stop  offset="0.65" style="stop-color:#F8971D"/>
			<stop  offset="0.8221" style="stop-color:#F7921E"/>
			<stop  offset="0.8797" style="stop-color:#F89B25"/>
			<stop  offset="0.973" style="stop-color:#FCB339"/>
			<stop  offset="0.98" style="stop-color:#FCB53B"/>
		</radialGradient>
		<path class="st5" d="M105.4,51.9c-9.3-1.2-16.8-7-25.9-9.3c-17.3-4.1-22.5,7.6-22.2,14.4c0.3,7.2,8.8,20,26.7,17.3
			c0.7-0.1,1.8-0.3,2.4-0.5c2.6-0.7,3-0.8,5.6-1.8c4.3-1.9,6.6-3.4,9.7-5.8c6.5-5.7,9.6-10.6,12.3-19.1
			C112.9,51.2,108.8,52.3,105.4,51.9z"/>
		
			<radialGradient id="SVGID_7_" cx="62.8542" cy="558.6567" r="54.4934" gradientTransform="matrix(1 0 0 1 0 -534)" gradientUnits="userSpaceOnUse">
			<stop  offset="0.35" style="stop-color:#FCB53B"/>
			<stop  offset="0.65" style="stop-color:#F8971D"/>
			<stop  offset="0.8221" style="stop-color:#F7921E"/>
			<stop  offset="0.8797" style="stop-color:#F89B25"/>
			<stop  offset="0.973" style="stop-color:#FCB339"/>
			<stop  offset="0.98" style="stop-color:#FCB53B"/>
		</radialGradient>
		<path class="st6" d="M111.9,45.1c7.9-6.9,0.7-29.1-6.6-29.8c-1.1-0.1-3.8,0.5-2.7,12.2C103.9,40.5,108.3,48.3,111.9,45.1z"/>
		
			<radialGradient id="SVGID_8_" cx="62.8567" cy="558.6563" r="54.489" gradientTransform="matrix(1 0 0 1 0 -534)" gradientUnits="userSpaceOnUse">
			<stop  offset="0.35" style="stop-color:#FCB53B"/>
			<stop  offset="0.65" style="stop-color:#F8971D"/>
			<stop  offset="0.8221" style="stop-color:#F7921E"/>
			<stop  offset="0.8797" style="stop-color:#F89B25"/>
			<stop  offset="0.973" style="stop-color:#FCB339"/>
			<stop  offset="0.98" style="stop-color:#FCB53B"/>
		</radialGradient>
		<path class="st7" d="M50.2,45.2c-2.7-1.9-5.7-2.6-8.1-5.3c-1.9-2.2-1.5-3.7-1.5-4.5c0,0-0.5,2.8,0.1,7.6c2,10.8,6,14.1,6.9,15
			c1.2,1.1,3.5,1.6,5.1,0.3C55,56.5,56.8,49.7,50.2,45.2z"/>
	</g>
</g>
<g>
	<path class="st8" d="M41.8,118.9h-1.5v-14.4c0-0.8,0.4-1.1,1.1-1.1c0.5,0,0.9,0.3,1.1,0.6l8.2,12.7v-13.1h1.5v14.3
		c0,0.8-0.4,1.1-1.1,1.1c-0.5,0-0.9-0.3-1.1-0.7l-8.2-12.6L41.8,118.9L41.8,118.9z"/>
	<path class="st8" d="M53.7,113.3c0-4,2.4-5.8,5.1-5.8c3,0,5,1.8,5,5.5c0,0.6-0.3,1-0.9,1h-7.6c0.1,2.5,1.8,3.6,3.9,3.6
		c0.8,0,1.7-0.2,3.1-0.6l1.1-0.4l0.4,1.3l-1.1,0.4c-1.5,0.5-2.5,0.7-3.5,0.7C55.9,119,53.7,117.2,53.7,113.3z M58.8,108.9
		c-2,0-3.3,1.5-3.5,3.8h6.9C62.2,110.6,61.1,108.9,58.8,108.9z"/>
	<path class="st8" d="M71.5,118.7c-1.1,0.3-1.8,0.4-2.4,0.4c-2.2,0-3.2-1.2-3.2-3.5v-6.2h-1.8v-1.4h1.8v-2.8l1.5-0.4v3.2h3.8v1.4
		h-3.8v6c0,1.6,0.4,2.3,1.8,2.3c0.4,0,1-0.1,2.1-0.4L71.5,118.7z"/>
	<path class="st8" d="M84.5,118.1c-0.1,0.6-0.5,1-1.1,1c-0.6,0-1-0.3-1.1-0.9l-2.8-8.7l-3,8.8c-0.2,0.5-0.6,0.8-1.1,0.8
		c-0.6,0-1.1-0.4-1.1-0.9l-2.1-10.4h1.6l1.8,9.6l3.1-9c0.2-0.4,0.4-0.7,1-0.7s0.8,0.3,1,0.7l3.1,9l1.8-9.6h1.6L84.5,118.1z"/>
	<path class="st8" d="M92.7,119c-3.2,0-5.2-2.1-5.2-5.7c0-3.7,2.1-5.7,5.3-5.7s5.2,2,5.2,5.7S95.8,119,92.7,119z M92.7,108.9
		c-2.4,0-3.6,1.7-3.6,4.4c0,2.8,1.3,4.4,3.7,4.4s3.7-1.6,3.7-4.4C96.4,110.5,95.1,108.9,92.7,108.9z"/>
	<path class="st8" d="M105,109.1c-1.4,0-2.6,0.1-4,0.4v9.4h-1.5v-9.3c0-0.8,0.4-1.3,1.2-1.5c1.6-0.4,2.5-0.5,4.4-0.5L105,109.1
		L105,109.1z"/>
	<path class="st8" d="M113.6,118.9l-3.3-6.2l-1.3,1.3c-0.9,0.8-1.5,1.5-1.5,3v1.9h-1.5v-15.5l1.5-0.4v10.9l5.7-6.2h2l-3.7,3.9
		l3.9,7.3H113.6z"/>
</g>
<g>
	<g>
		<path class="st8" d="M2,99.1V84.2h3.3V99L2,99.1L2,99.1z"/>
		<path class="st8" d="M7,93.7v-2.2h6.8v2.2H7z"/>
		<path class="st8" d="M31,99.1h-3V88.2L24.9,98c-0.3,0.8-0.8,1.2-1.8,1.2c-0.9,0-1.5-0.4-1.8-1.2l-3.1-9.8v10.9h-2.8v-13
			c0-1.4,1-2,2.4-2c1.7,0,2.4,0.8,2.7,1.9l2.7,8.5L26,86c0.3-1.1,1-1.9,2.6-1.9c1.4,0,2.4,0.7,2.4,2L31,99.1L31,99.1z"/>
		<path class="st8" d="M34.8,99.1c-1.2,0-1.9-0.7-1.9-1.8V85.9c0-1.1,0.7-1.8,1.9-1.8h8.6v2.4h-7.2v3.6h6.3v2.4h-6.3v4h7.3V99
			L34.8,99.1L34.8,99.1z"/>
		<path class="st8" d="M50.5,99.1h-3.8c-1.2,0-1.9-0.7-1.9-1.8V85.9c0-1.1,0.7-1.8,1.9-1.8h3.9c4.3,0,7,2.8,7,7.5
			C57.5,96.4,54.7,99.1,50.5,99.1z M50.3,86.7H48v9.9h2.4c2.4,0,3.9-1.7,3.9-4.9C54.3,88.6,52.8,86.7,50.3,86.7z"/>
	</g>
	<path class="st8" d="M73.4,98.3l-2.4-5.5h-3.3v5.5h-3.3V85.2c0-1,0.8-1.8,1.9-1.8h5.2c2.9,0,4.6,1.5,4.6,4.3c0,1.2-0.5,2.2-1.2,3.1
		L74,91.9l2.9,6.4H73.4z M71.1,85.8h-3.2v4.7h3.9l0.6-0.8c0.4-0.5,0.8-1.2,0.8-1.9C73,86.6,72.5,85.8,71.1,85.8z"/>
	<path class="st8" d="M87,98.6L86,98.1c-0.5-0.3-1-0.3-1.6-0.2l-0.7,0.2c-0.9,0.3-2,0.4-2.8,0.4c-2.4,0-3.9-1.2-3.9-3.2
		c0-2.9,2.4-3.5,5.2-3.5h1.9v-0.8c0-1.2-0.8-1.6-1.9-1.6c-0.8,0-2.1,0.3-3.3,0.6l-1.1,0.3l-0.3-2.2l1-0.3c1.4-0.4,2.7-0.7,4-0.7
		c2.4,0,4.3,1,4.3,3.8v5.1l1.2,0.8L87,98.6z M84.1,93.7h-2.4c-1.3,0-2,0.4-2,1.4c0,0.8,0.6,1.3,1.7,1.3c0.4,0,1.2-0.1,1.9-0.3
		l0.8-0.3V93.7z"/>
	<path class="st8" d="M98.1,82.6V96c0,0.9-0.4,1.4-1.4,1.7c-1.5,0.4-2.5,0.5-3.5,0.5c-3.3,0-5.2-2-5.2-5.6c0-3.5,1.7-5.6,4.9-5.6
		c0.8,0,1.6,0.2,2.4,0.4v-4.4C96.2,82.9,97.2,82.7,98.1,82.6z M90.8,92.6c0,2,0.8,3.4,2.7,3.4c0.6,0,1-0.1,1.9-0.3v-6.1
		c-1.1-0.3-1.6-0.3-2-0.4C91.4,89.3,90.8,90.5,90.8,92.6z"/>
	<path class="st8" d="M101.1,85.7c-1,0-1.6-0.6-1.6-1.5s0.6-1.5,1.6-1.5s1.6,0.6,1.6,1.5S102.2,85.7,101.1,85.7z M99.8,98.1v-11h2.7
		v11H99.8z"/>
	<path class="st8" d="M109,98.3c-3.3,0-5.3-2-5.3-5.6c0-3.6,2.1-5.7,5.4-5.7s5.3,2,5.3,5.7C114.4,96.2,112.3,98.3,109,98.3z
		 M109,89.1c-1.7,0-2.5,1.3-2.5,3.5c0,2.4,0.9,3.5,2.6,3.5c1.7,0,2.5-1.3,2.5-3.5C111.6,90.3,110.7,89.1,109,89.1z"/>
	<path class="st8" d="M115.6,98.1V83.1l2.8-0.5v15.5L115.6,98.1L115.6,98.1z"/>
	<path class="st8" d="M125,98.3c-3.3,0-5.3-2-5.3-5.6c0-3.6,2.1-5.7,5.4-5.7s5.3,2,5.3,5.7C130.4,96.2,128.2,98.3,125,98.3z
		 M125,89.1c-1.7,0-2.5,1.3-2.5,3.5c0,2.4,0.9,3.5,2.6,3.5c1.7,0,2.5-1.3,2.5-3.5S126.6,89.1,125,89.1z"/>
	<path class="st8" d="M132,96.5l0.9-1.2c0.3-0.3,0.3-0.6,0.3-0.9c0-0.4-0.2-0.8-0.7-1.1c-0.6-0.4-1.5-1.2-1.5-2.7
		c0-2.4,1.9-3.5,4.8-3.5h1.1c0.9,0,1.6-0.1,2-0.3l2.6-0.8l0.5,2l-2,0.6c0,0,0.8,0.6,0.8,1.9c0,2.3-1.9,3.4-4.8,3.4
		c-0.6,0-0.9-0.1-0.9-0.1c0.1,0.1,0.2,0.3,0.2,0.6c0,0.3-0.1,0.7-0.3,0.9h3.1c2.5,0,3.7,1.1,3.7,2.8c0,2.2-1.9,3.5-5.7,3.5
		c-2.8,0-5.1-0.8-5.1-3.1C131.2,97.7,131.5,97,132,96.5z M138,97.4h-4c-0.3,0.3-0.4,0.7-0.4,1.2c0,1,1,1.4,2.7,1.4
		c2.1,0,3.1-0.5,3.1-1.5C139.5,97.8,139.1,97.4,138,97.4z M136,89.1c-1.4,0-2.3,0.4-2.3,1.6c0,1.3,0.9,1.7,2.3,1.7s2.4-0.5,2.4-1.7
		C138.3,89.5,137.4,89.1,136,89.1z"/>
	<path class="st8" d="M143.4,101.3l0.3-2.1c0.8,0.3,1.4,0.3,1.9,0.3c0.9,0,1.2-0.4,1.4-0.9l0.2-0.4l-4.3-11.1h3l2.6,7.9l2.3-7.9h2.9
		l-3.8,11.3c-0.8,2.2-1.7,3.4-3.9,3.4C145.1,101.7,144.4,101.6,143.4,101.3z"/>
</g>
</svg>
