<?xml version="1.0" encoding="utf-8"?>
<!-- Generator: Adobe Illustrator 19.2.1, SVG Export Plug-In . SVG Version: 6.00 Build 0)  -->
<!DOCTYPE svg PUBLIC "-//W3C//DTD SVG 1.1//EN" "http://www.w3.org/Graphics/SVG/1.1/DTD/svg11.dtd">
<svg version="1.1" id="Layer_1" xmlns="http://www.w3.org/2000/svg" xmlns:xlink="http://www.w3.org/1999/xlink" x="0px" y="0px"
	 viewBox="0 0 28.5 29.8" style="enable-background:new 0 0 28.5 29.8;" xml:space="preserve">
<style type="text/css">
	.st0{fill:none;stroke:#F7921E;stroke-width:1.5;stroke-linecap:round;stroke-linejoin:round;stroke-miterlimit:10;}
</style>
<g id="Outline_Icons">
	<g>
		<g>
			<path class="st0" d="M22.3,26.3c0,1.3-1,2.3-2.3,2.3H9.6c-1.3,0-2.3-1-2.3-2.3V4.4c0-1.3,1-2.3,2.3-2.3H20c1.3,0,2.3,1,2.3,2.3
				V26.3z"/>
			<line class="st0" x1="22.3" y1="6.7" x2="7.3" y2="6.7"/>
			<line class="st0" x1="22.3" y1="24" x2="7.3" y2="24"/>
			<line class="st0" x1="11.9" y1="4.4" x2="17.7" y2="4.4"/>
			<path class="st0" d="M15.3,26.3c0,0.3-0.3,0.6-0.6,0.6l0,0c-0.3,0-0.6-0.3-0.6-0.6l0,0c0-0.3,0.3-0.6,0.6-0.6l0,0
				C15.1,25.7,15.3,26,15.3,26.3L15.3,26.3z"/>
		</g>
	</g>
</g>
</svg>
