<?xml version="1.0" encoding="utf-8"?>
<!-- Generator: Adobe Illustrator 17.1.0, SVG Export Plug-In . SVG Version: 6.00 Build 0)  -->
<!DOCTYPE svg PUBLIC "-//W3C//DTD SVG 1.1//EN" "http://www.w3.org/Graphics/SVG/1.1/DTD/svg11.dtd">
<svg version="1.1" id="Layer_1" xmlns="http://www.w3.org/2000/svg" xmlns:xlink="http://www.w3.org/1999/xlink" x="0px" y="0px"
	 viewBox="0 0 48 48" enable-background="new 0 0 48 48" xml:space="preserve">
<g>
	<path fill="#F7921E" d="M9,24c0.6,0,1-0.4,1-1V4c0-1.1,0.9-2,2-2h16v6c0,2.2,1.8,4,4,4h6v11c0,0.6,0.4,1,1,1c0.6,0,1-0.4,1-1V11
		c0-0.1,0-0.3-0.1-0.4c-0.1-0.1-0.1-0.2-0.2-0.3l-10-10c-0.1-0.1-0.2-0.2-0.3-0.2C29.3,0,29.1,0,29,0H12C9.8,0,8,1.8,8,4v19
		C8,23.6,8.4,24,9,24z M30,3.4l6.6,6.6H32c-1.1,0-2-0.9-2-2V3.4z"/>
	<path fill="#F7921E" d="M44,28H4c-2.2,0-4,1.8-4,4v12c0,2.2,1.8,4,4,4h40c2.2,0,4-1.8,4-4V32C48,29.8,46.2,28,44,28z M46,44
		c0,1.1-0.9,2-2,2H4c-1.1,0-2-0.9-2-2V32c0-1.1,0.9-2,2-2h40c1.1,0,2,0.9,2,2V44z"/>
	<circle fill="#F7921E" cx="12.5" cy="38" r="1.5"/>
	<circle fill="#F7921E" cx="7.5" cy="38" r="1.5"/>
	<path fill="#F7921E" d="M31,16H17c-0.6,0-1,0.4-1,1c0,0.6,0.4,1,1,1h14c0.6,0,1-0.4,1-1C32,16.4,31.6,16,31,16z"/>
	<path fill="#F7921E" d="M31,20H17c-0.6,0-1,0.4-1,1c0,0.6,0.4,1,1,1h14c0.6,0,1-0.4,1-1C32,20.4,31.6,20,31,20z"/>
</g>
</svg>
