<?xml version="1.0" encoding="utf-8"?>
<!-- Generator: Adobe Illustrator 19.2.1, SVG Export Plug-In . SVG Version: 6.00 Build 0)  -->
<!DOCTYPE svg PUBLIC "-//W3C//DTD SVG 1.1//EN" "http://www.w3.org/Graphics/SVG/1.1/DTD/svg11.dtd">
<svg version="1.1" id="Layer_1" xmlns="http://www.w3.org/2000/svg" xmlns:xlink="http://www.w3.org/1999/xlink" x="0px" y="0px"
	 viewBox="0 0 23.4 23.7" style="enable-background:new 0 0 23.4 23.7;" xml:space="preserve">
<style type="text/css">
	.st0{fill:#F7921E;stroke:#F7921E;stroke-width:0.25;stroke-miterlimit:10;}
</style>
<g>
	<path class="st0" d="M22.1,3.3l-1.9-1.9c-1.4-1.4-3.9-1.4-5.3,0l-4.2,4.2c-1,1-1,2.7,0,3.8l0.1,0.1c0.2,0.2,0.5,0.2,0.8,0
		c0.2-0.2,0.2-0.5,0-0.8l-0.1-0.1c-0.6-0.6-0.6-1.6,0-2.3l4.2-4.2c1-1,2.8-1,3.8,0L21.3,4c1,1,1,2.7,0,3.8L17.1,12
		c-0.6,0.6-1.6,0.6-2.3,0l-0.1-0.1c-0.2-0.2-0.5-0.2-0.8,0c-0.2,0.2-0.2,0.5,0,0.8l0.1,0.1c0.5,0.5,1.2,0.8,1.9,0.8
		c0.7,0,1.4-0.3,1.9-0.8l4.2-4.2C23.5,7.1,23.5,4.7,22.1,3.3z"/>
	<path class="st0" d="M12.6,14c-0.2-0.2-0.5-0.2-0.8,0c-0.2,0.2-0.2,0.5,0,0.8l0.1,0.1c0.6,0.6,0.6,1.6,0,2.3l-4.2,4.2
		c-1,1-2.8,1-3.8,0l-1.9-1.9c-1-1-1-2.7,0-3.8l4.2-4.2c0.6-0.6,1.6-0.6,2.3,0l0.1,0.1c0.2,0.2,0.5,0.2,0.8,0c0.2-0.2,0.2-0.5,0-0.8
		l-0.1-0.1c-1-1-2.7-1-3.8,0l-4.2,4.2c-1.4,1.5-1.4,3.8,0,5.3l1.9,1.9c0.7,0.7,1.6,1.1,2.6,1.1s1.9-0.4,2.6-1.1l4.2-4.2
		C13.8,16.8,13.8,15.1,12.6,14L12.6,14z"/>
	<path class="st0" d="M7.2,16.2c0.1,0.1,0.2,0.2,0.4,0.2c0.1,0,0.3-0.1,0.4-0.2L16.2,8c0.2-0.2,0.2-0.5,0-0.8C16,7,15.7,7,15.5,7.2
		l-8.3,8.3C7,15.7,7,16,7.2,16.2z"/>
</g>
</svg>
