<?xml version="1.0" encoding="utf-8"?>
<!-- Generator: Adobe Illustrator 19.2.1, SVG Export Plug-In . SVG Version: 6.00 Build 0)  -->
<!DOCTYPE svg PUBLIC "-//W3C//DTD SVG 1.1//EN" "http://www.w3.org/Graphics/SVG/1.1/DTD/svg11.dtd">
<svg version="1.1" id="Layer_1" xmlns="http://www.w3.org/2000/svg" xmlns:xlink="http://www.w3.org/1999/xlink" x="0px" y="0px"
	 viewBox="0 0 23.4 23.7" style="enable-background:new 0 0 23.4 23.7;" xml:space="preserve">
<style type="text/css">
	.st0{fill:none;stroke:#F7921E;stroke-linecap:round;stroke-linejoin:round;stroke-miterlimit:10;}
</style>
<g id="Outline_Icons">
	<g>
		<path class="st0" d="M19,20.9c0,0.5-0.4,1-1,1H5.6c-0.5,0-1-0.4-1-1V4.1c0-1.9,1.5-3.4,3.4-3.4h7.7c1.9,0,3.4,1.5,3.4,3.4V20.9z"
			/>
		<rect x="5.6" y="21.9" class="st0" width="1.9" height="1"/>
		<rect x="16.2" y="21.9" class="st0" width="1.9" height="1"/>
		<rect x="4.6" y="6.5" class="st0" width="14.4" height="8.6"/>
		<rect x="9.4" y="2.7" class="st0" width="4.8" height="1.9"/>
		<line class="st0" x1="6.6" y1="19" x2="9.4" y2="19"/>
		<line class="st0" x1="14.2" y1="19" x2="17.1" y2="19"/>
		<rect x="0.8" y="7.5" class="st0" width="1.9" height="6.7"/>
		<rect x="21" y="7.5" class="st0" width="1.9" height="6.7"/>
		<line class="st0" x1="2.7" y1="7.5" x2="4.6" y2="7.5"/>
		<line class="st0" x1="19" y1="7.5" x2="21" y2="7.5"/>
	</g>
</g>
</svg>
