<?xml version="1.0" encoding="utf-8"?>
<!-- Generator: Adobe Illustrator 19.2.1, SVG Export Plug-In . SVG Version: 6.00 Build 0)  -->
<!DOCTYPE svg PUBLIC "-//W3C//DTD SVG 1.1//EN" "http://www.w3.org/Graphics/SVG/1.1/DTD/svg11.dtd">
<svg version="1.1" id="Layer_1" xmlns="http://www.w3.org/2000/svg" xmlns:xlink="http://www.w3.org/1999/xlink" x="0px" y="0px"
	 viewBox="0 0 428.5 59.8" style="enable-background:new 0 0 428.5 59.8;" xml:space="preserve">
<style type="text/css">
	.st0{fill:url(#SVGID_1_);}
	.st1{fill:url(#SVGID_2_);}
	.st2{fill:url(#SVGID_3_);}
	.st3{fill:url(#SVGID_4_);}
	.st4{fill:url(#SVGID_5_);}
	.st5{fill:url(#SVGID_6_);}
	.st6{fill:url(#SVGID_7_);}
	.st7{fill:url(#SVGID_8_);}
	.st8{fill:#F7921E;}
	.st9{fill:#5F646A;}
</style>
<g>
	<g>
		<radialGradient id="SVGID_1_" cx="17.2493" cy="29.2244" r="34.3971" gradientUnits="userSpaceOnUse">
			<stop  offset="0" style="stop-color:#004E9A"/>
			<stop  offset="1" style="stop-color:#232E83"/>
		</radialGradient>
		<path class="st0" d="M39.3,10.2c0.1-0.8,0.1-1.6-0.1-2.4c-0.4-1.9-1.8-5.1-4.1-5.7c-3-0.4-5.3,5.1-2.9,9
			C34.6,14.8,38.7,14.3,39.3,10.2z"/>
		<radialGradient id="SVGID_2_" cx="17.2504" cy="29.225" r="34.397" gradientUnits="userSpaceOnUse">
			<stop  offset="0" style="stop-color:#004E9A"/>
			<stop  offset="1" style="stop-color:#232E83"/>
		</radialGradient>
		<path class="st1" d="M5.5,19.3c1.4,0.8,7.4-6.9,7.3-9.6c0-0.5-0.2-0.7-0.3-0.8c-0.2-0.1-0.5-0.4-1.4,0C7.7,10.5,3.9,18.4,5.5,19.3
			z"/>
		<radialGradient id="SVGID_3_" cx="17.2511" cy="29.2235" r="34.3933" gradientUnits="userSpaceOnUse">
			<stop  offset="0" style="stop-color:#004E9A"/>
			<stop  offset="1" style="stop-color:#232E83"/>
		</radialGradient>
		<path class="st2" d="M8.8,20.3c-3.7,1.4-5.5,4.5-5.7,6.5c0,0.5-0.3,1.7,1.1,3.3c0.9,1,1.8,1.6,2.8,2.1c2.3-5.3,8.6-5,7.9-9.7
			C14.3,19.6,11.5,19.3,8.8,20.3z"/>
		<radialGradient id="SVGID_4_" cx="17.2509" cy="29.224" r="34.3941" gradientUnits="userSpaceOnUse">
			<stop  offset="0" style="stop-color:#004E9A"/>
			<stop  offset="1" style="stop-color:#232E83"/>
		</radialGradient>
		<path class="st3" d="M49.1,22.3c-3.2-4.2-9.3-6.6-14.8-7.4c-15.6-1.6-18.6,5.6-15.8,9.1c0.7,0.9,1.9,1.6,3.4,1.7
			c2.9,0.2,5.5,0.5,8.1,1c5.9,1.1,9.2,4.2,10.8,5.6c2.9,2.6,4.1,2.9,5.7,2.9c1.4,0,4-0.9,4.6-4.5C50.3,28.6,49.5,25.7,49.1,22.3z"/>
		<radialGradient id="SVGID_5_" cx="17.2477" cy="29.2252" r="34.397" gradientUnits="userSpaceOnUse">
			<stop  offset="0" style="stop-color:#004E9A"/>
			<stop  offset="1" style="stop-color:#232E83"/>
		</radialGradient>
		<path class="st4" d="M57,32.5c-0.3,0.5-0.7,1-1.2,1.4c-0.8,0.7-1.7,0.7-2.5,0c-0.5,1.4-1,3.3-2.4,4.9c0,0,0.1,0,0.1,0
			c2.5,0.3,5.4-0.5,6.4-3.6C57.7,33.9,57.5,33,57,32.5z"/>
	</g>
	<g>
		<radialGradient id="SVGID_6_" cx="19.5746" cy="18.8127" r="40.2426" gradientUnits="userSpaceOnUse">
			<stop  offset="0.35" style="stop-color:#FCB53B"/>
			<stop  offset="0.65" style="stop-color:#F8971D"/>
			<stop  offset="0.8221" style="stop-color:#F7921E"/>
			<stop  offset="0.8797" style="stop-color:#F89B25"/>
			<stop  offset="0.973" style="stop-color:#FCB339"/>
			<stop  offset="0.98" style="stop-color:#FCB53B"/>
		</radialGradient>
		<path class="st5" d="M51,38.9C44.1,38,38.6,33.7,31.9,32C19.1,29,15.3,37.6,15.5,42.6c0.2,5.3,6.5,14.8,19.7,12.8
			c0.5-0.1,1.3-0.2,1.8-0.4c1.9-0.5,2.2-0.6,4.1-1.3c3.2-1.4,4.9-2.5,7.2-4.3c4.8-4.2,7.1-7.8,9.1-14.1C56.5,38.4,53.5,39.2,51,38.9
			z"/>
		<radialGradient id="SVGID_7_" cx="19.5724" cy="18.8122" r="40.2454" gradientUnits="userSpaceOnUse">
			<stop  offset="0.35" style="stop-color:#FCB53B"/>
			<stop  offset="0.65" style="stop-color:#F8971D"/>
			<stop  offset="0.8221" style="stop-color:#F7921E"/>
			<stop  offset="0.8797" style="stop-color:#F89B25"/>
			<stop  offset="0.973" style="stop-color:#FCB339"/>
			<stop  offset="0.98" style="stop-color:#FCB53B"/>
		</radialGradient>
		<path class="st6" d="M55.8,33.9c5.8-5.1,0.5-21.5-4.9-22c-0.8-0.1-2.8,0.4-2,9C49.9,30.5,53.1,36.3,55.8,33.9z"/>
		<radialGradient id="SVGID_8_" cx="19.5743" cy="18.8119" r="40.2422" gradientUnits="userSpaceOnUse">
			<stop  offset="0.35" style="stop-color:#FCB53B"/>
			<stop  offset="0.65" style="stop-color:#F8971D"/>
			<stop  offset="0.8221" style="stop-color:#F7921E"/>
			<stop  offset="0.8797" style="stop-color:#F89B25"/>
			<stop  offset="0.973" style="stop-color:#FCB339"/>
			<stop  offset="0.98" style="stop-color:#FCB53B"/>
		</radialGradient>
		<path class="st7" d="M10.2,34c-2-1.4-4.2-1.9-6-3.9c-1.4-1.6-1.1-2.7-1.1-3.3c0,0-0.4,2.1,0.1,5.6c1.5,8,4.4,10.4,5.1,11.1
			c0.9,0.8,2.6,1.2,3.8,0.2C13.8,42.3,15.1,37.3,10.2,34z"/>
	</g>
	<path class="st8" d="M249.8,7.5v44.2c0,0.1-0.1,0.2-0.2,0.2c-0.1,0-0.2-0.1-0.2-0.2V7.5c0-0.1,0.1-0.2,0.2-0.2
		C249.7,7.3,249.8,7.4,249.8,7.5z"/>
	<g>
		<path class="st8" d="M424.3,41.1c0-0.7-0.4-1.1-1.1-1.1c-0.7,0-1.2,0.4-1.2,1.1c0,0.7,0.4,1.1,1.2,1.1
			C423.9,42.2,424.3,41.8,424.3,41.1 M416.5,44.7c1.6,0,2.3-0.8,2.8-2.4l2.7-8.1h-2.1l-1.6,5.6l-1.8-5.6h-2.2l3.1,7.9l-0.1,0.3
			c-0.1,0.4-0.3,0.7-1,0.7c-0.4,0-0.8-0.1-1.4-0.3l-0.2,1.5C415.4,44.6,415.9,44.7,416.5,44.7 M413.3,40.4c-0.5,0.1-1,0.2-1.3,0.2
			c-0.8,0-1.1-0.5-1.1-1.2v-3.6h2.4v-1.5h-2.4v-2l-1.9,0.4v1.7h-1.1v1.5h1.1v3.5c0,1.9,0.8,2.9,2.7,2.9c0.6,0,1.2-0.1,1.9-0.3
			L413.3,40.4z M407,32.1c0-0.6-0.4-1.1-1.1-1.1c-0.7,0-1.1,0.4-1.1,1.1c0,0.7,0.4,1.1,1.1,1.1C406.6,33.2,407,32.8,407,32.1
			 M406.9,34.2h-2v7.9h2V34.2z M403.2,42.1V31l-2,0.4v10.8H403.2z M397.4,40.4l-0.6,0.2c-0.5,0.1-1,0.2-1.3,0.2
			c-0.7,0-1.2-0.3-1.2-0.9c0-0.7,0.5-1,1.5-1h1.7V40.4z M400.1,41l-0.9-0.5v-3.6c0-2-1.3-2.7-3.1-2.7c-0.9,0-1.9,0.2-2.9,0.5
			l-0.7,0.2l0.3,1.5l0.8-0.2c0.8-0.3,1.7-0.4,2.3-0.4c0.8,0,1.4,0.3,1.4,1.2v0.5H396c-2,0-3.7,0.4-3.7,2.5c0,1.4,1,2.3,2.8,2.3
			c0.6,0,1.4-0.1,2-0.3l0.5-0.1c0.4-0.1,0.8-0.1,1.2,0.1l0.7,0.4L400.1,41z M388.9,40.2c-0.8,0.2-1.1,0.2-1.5,0.2
			c-1,0-1.3-0.6-1.3-1.3v-5h-2v5.1c0,1.6,0.9,2.8,3.2,2.8c0.7,0,1.5-0.1,2.5-0.4c0.7-0.2,1-0.5,1-1.2v-6.4h-2V40.2z M378.7,42.1
			c0.5,0,1.2-0.1,1.8-0.3v3l2-0.4v-8.7c0-0.7-0.3-1-1-1.2c-1-0.3-1.8-0.4-2.5-0.4c-2.4,0-3.8,1.6-3.8,4
			C375.2,40.7,376.3,42.1,378.7,42.1 M379,40.5c-1.3,0-1.8-0.9-1.8-2.4c0-1.5,0.6-2.4,1.9-2.4c0.3,0,0.6,0,1.4,0.2v4.3
			C379.7,40.5,379.3,40.5,379,40.5 M362.9,42.4c0,1.6,1.6,2.2,3.6,2.2c2.7,0,4.1-0.9,4.1-2.5c0-1.2-0.8-2-2.7-2h-2.3
			c0.2-0.2,0.2-0.4,0.2-0.6c0-0.2-0.1-0.4-0.1-0.4c0,0,0.2,0.1,0.7,0.1c2.1,0,3.4-0.8,3.4-2.4c0-0.9-0.6-1.3-0.6-1.3l1.4-0.4
			l-0.4-1.5l-1.8,0.5c-0.3,0.1-0.8,0.2-1.4,0.2h-0.8c-2.1,0-3.5,0.8-3.5,2.5c0,1.1,0.6,1.6,1.1,1.9c0.3,0.2,0.5,0.4,0.5,0.8
			c0,0.2-0.1,0.4-0.3,0.7l-0.7,0.8C363.1,41.3,362.9,41.8,362.9,42.4 M368.8,42.3c0,0.7-0.7,1.1-2.2,1.1c-1.2,0-1.9-0.2-1.9-1
			c0-0.3,0.1-0.6,0.3-0.8h2.8C368.5,41.6,368.8,41.8,368.8,42.3 M368,36.8c0,0.9-0.7,1.2-1.7,1.2c-1,0-1.7-0.3-1.7-1.2
			c0-0.8,0.7-1.2,1.7-1.2C367.3,35.6,368,35.9,368,36.8 M356.7,36.1c0.8-0.2,1.1-0.2,1.5-0.2c1,0,1.3,0.6,1.3,1.3v5h2V37
			c0-1.6-0.9-2.8-3.2-2.8c-0.7,0-1.5,0.1-2.6,0.4c-0.7,0.2-1,0.5-1,1.2v6.4h2V36.1z M353.1,32.1c0-0.6-0.4-1.1-1.1-1.1
			c-0.7,0-1.1,0.4-1.1,1.1c0,0.7,0.4,1.1,1.1,1.1C352.7,33.2,353.1,32.8,353.1,32.1 M353,34.2h-2v7.9h2V34.2z M345.8,37.3
			c-0.7-0.1-1-0.4-1-0.8c0-0.6,0.5-0.9,1.2-0.9c0.8,0,1.7,0.2,2.5,0.5l0.8,0.2l0.3-1.6l-0.7-0.2c-1-0.3-1.8-0.5-2.8-0.5
			c-1.7,0-3,0.8-3,2.5c0,1.3,0.8,2,2.2,2.2l1.5,0.2c0.7,0.1,1,0.4,1,0.8c0,0.6-0.5,0.9-1.2,0.9c-0.8,0-1.7-0.2-2.5-0.5l-0.7-0.2
			l-0.3,1.6l0.7,0.2c1,0.3,1.8,0.5,2.8,0.5c1.7,0,3-0.8,3-2.5c0-1.2-0.8-2-2.2-2.2L345.8,37.3z M341.6,32.1c0-0.6-0.4-1.1-1.1-1.1
			c-0.7,0-1.1,0.4-1.1,1.1c0,0.7,0.4,1.1,1.1,1.1C341.2,33.2,341.6,32.8,341.6,32.1 M341.4,34.2h-2v7.9h2V34.2z M328.8,36.1
			c0.6-0.2,1-0.2,1.3-0.2c0.9,0,1.2,0.5,1.2,1.2v5h2V37c0-0.4-0.1-0.6-0.1-0.8c0.4-0.1,0.8-0.3,1.5-0.3c0.9,0,1.2,0.5,1.2,1.2v5h1.9
			v-5.2c0-1.6-0.8-2.8-2.9-2.8c-0.9,0-1.8,0.3-2.5,0.6c-0.5-0.4-1.1-0.6-2.1-0.6c-0.7,0-1.5,0.1-2.4,0.4c-0.7,0.2-1,0.5-1,1.2v6.4h2
			V36.1z M323.5,38.1c0,1.7-0.6,2.6-1.8,2.6c-1.2,0-1.9-0.9-1.9-2.6c0-1.6,0.6-2.6,1.8-2.6C322.8,35.6,323.5,36.5,323.5,38.1
			 M325.5,38.1c0-2.6-1.5-4-3.8-4c-2.4,0-3.9,1.4-3.9,4c0,2.6,1.5,4,3.8,4C323.9,42.2,325.5,40.7,325.5,38.1 M317.1,34.1
			c-1.5,0-2.4,0.1-3.5,0.4c-0.7,0.2-1,0.5-1,1.2v6.3h2v-6c0.7-0.2,1.5-0.3,2.5-0.3V34.1z M306,44.4v-2.6c0.6,0.2,1.2,0.3,1.7,0.3
			c2.3,0,3.5-1.5,3.5-4c0-2.5-1.4-4-3.7-4c-0.7,0-1.4,0.1-2.5,0.4c-0.7,0.2-1,0.6-1,1.2v9L306,44.4z M307.5,40.5
			c-0.3,0-0.7,0-1.5-0.3v-4.3c0.5-0.1,0.8-0.2,1.4-0.2c1.3,0,1.9,0.9,1.9,2.4C309.3,39.7,308.8,40.5,307.5,40.5 M293.4,36.1
			c0.6-0.2,1-0.2,1.3-0.2c0.9,0,1.2,0.5,1.2,1.2v5h2V37c0-0.4-0.1-0.6-0.1-0.8c0.4-0.1,0.8-0.3,1.5-0.3c0.9,0,1.2,0.5,1.2,1.2v5h1.9
			v-5.2c0-1.6-0.8-2.8-2.9-2.8c-0.9,0-1.8,0.3-2.5,0.6c-0.5-0.4-1.2-0.6-2.1-0.6c-0.7,0-1.5,0.1-2.4,0.4c-0.7,0.2-1,0.5-1,1.2v6.4h2
			V36.1z M288.1,38.1c0,1.7-0.6,2.6-1.8,2.6c-1.2,0-1.9-0.9-1.9-2.6c0-1.6,0.6-2.6,1.8-2.6C287.4,35.6,288.1,36.5,288.1,38.1
			 M290,38.1c0-2.6-1.5-4-3.8-4c-2.4,0-3.9,1.4-3.9,4c0,2.6,1.5,4,3.8,4C288.5,42.2,290,40.7,290,38.1 M276.9,38.1
			c0-1.6,0.6-2.4,1.9-2.4c0.5,0,1.1,0.2,1.8,0.4l0.6,0.2l0.3-1.6l-0.7-0.2c-0.8-0.2-1.6-0.4-2.3-0.4c-2.2,0-3.7,1.4-3.7,4
			c0,2.7,1.5,4,3.7,4c0.7,0,1.4-0.1,2.3-0.4l0.7-0.2l-0.3-1.6l-0.6,0.2c-0.7,0.2-1.3,0.4-1.8,0.4C277.6,40.5,276.9,39.7,276.9,38.1
			 M268.7,36.1c0.8-0.2,1.1-0.2,1.5-0.2c1,0,1.3,0.6,1.3,1.3v5h2V37c0-1.6-0.9-2.8-3.2-2.8c-0.7,0-1.5,0.1-2.6,0.4
			c-0.7,0.2-1,0.5-1,1.2v6.4h2V36.1z M262.7,38.2c0,1.4-0.7,2.1-2.1,2.1c-1.4,0-2.1-0.7-2.1-2.1v-6.8h-2.4v6.8
			c0,2.6,1.6,4.1,4.4,4.1c2.9,0,4.4-1.5,4.4-4.1v-6.8h-2.4V38.2z"/>
		<path class="st8" d="M398.6,24.5c0-0.7-0.4-1.1-1.1-1.1c-0.7,0-1.1,0.4-1.1,1.1c0,0.7,0.4,1.1,1.1,1.1
			C398.2,25.7,398.6,25.2,398.6,24.5 M393.2,20.9h-3.5c0.1-1.2,0.7-1.9,1.7-1.9C392.7,19,393.2,19.8,393.2,20.9 M387.8,21.6
			c0,2.7,1.6,4,3.9,4c0.8,0,1.6-0.1,2.5-0.5l0.8-0.2l-0.3-1.5l-0.8,0.2c-0.8,0.3-1.5,0.4-2.1,0.4c-1.2,0-2-0.6-2.1-1.8h4.5
			c0.6,0,0.8-0.3,0.8-0.8c0-2.6-1.4-3.9-3.6-3.9C389.5,17.5,387.8,18.8,387.8,21.6 M387.2,17.6c-1.5,0-2.4,0.1-3.5,0.4
			c-0.7,0.2-1,0.5-1,1.3v6.3h1.9v-6c0.7-0.2,1.5-0.3,2.5-0.3V17.6z M378.9,23.8l-0.6,0.2c-0.5,0.1-1,0.2-1.3,0.2
			c-0.7,0-1.2-0.3-1.2-0.9c0-0.8,0.5-1,1.4-1h1.7V23.8z M381.7,24.4l-0.9-0.5v-3.6c0-2-1.3-2.7-3.1-2.7c-0.9,0-1.8,0.2-2.8,0.5
			l-0.7,0.2l0.3,1.6l0.8-0.2c0.8-0.3,1.7-0.4,2.3-0.4c0.8,0,1.4,0.3,1.4,1.2v0.5h-1.3c-2,0-3.7,0.4-3.7,2.5c0,1.4,1,2.3,2.8,2.3
			c0.6,0,1.4-0.1,2-0.3l0.5-0.1c0.4-0.1,0.8-0.1,1.2,0.1l0.7,0.4L381.7,24.4z M368.3,21.6c0-1.6,0.6-2.4,1.9-2.4
			c0.5,0,1.1,0.2,1.8,0.4l0.6,0.2l0.3-1.6l-0.7-0.2c-0.8-0.2-1.6-0.4-2.3-0.4c-2.2,0-3.7,1.4-3.7,4c0,2.7,1.5,4,3.7,4
			c0.7,0,1.4-0.1,2.3-0.4l0.7-0.2l-0.3-1.6l-0.6,0.2c-0.7,0.2-1.3,0.4-1.8,0.4C369,24,368.3,23.2,368.3,21.6 M359.6,20.9h-3.5
			c0.1-1.2,0.7-1.9,1.7-1.9C359,19,359.6,19.8,359.6,20.9 M354.2,21.6c0,2.7,1.6,4,3.9,4c0.8,0,1.6-0.1,2.5-0.5l0.8-0.2l-0.3-1.5
			l-0.8,0.2c-0.8,0.3-1.5,0.4-2.1,0.4c-1.2,0-2-0.6-2.1-1.8h4.5c0.6,0,0.8-0.3,0.8-0.8c0-2.6-1.4-3.9-3.6-3.9
			C355.9,17.5,354.2,18.8,354.2,21.6 M353.8,17.6h-2.1l-1.8,5.8l-1.7-5.8H346l2.4,7.1c0.2,0.6,0.7,0.9,1.4,0.9
			c0.7,0,1.3-0.4,1.5-0.9L353.8,17.6z M345.2,15.5c0-0.6-0.4-1.1-1.1-1.1c-0.7,0-1.1,0.4-1.1,1.1c0,0.7,0.4,1.1,1.1,1.1
			C344.7,16.6,345.2,16.2,345.2,15.5 M345,17.6h-2v7.9h2V17.6z M337.8,20.7c-0.7-0.1-1-0.4-1-0.8c0-0.6,0.5-0.8,1.2-0.8
			c0.8,0,1.7,0.2,2.5,0.5l0.8,0.2l0.3-1.6l-0.7-0.2c-1-0.3-1.8-0.4-2.8-0.4c-1.7,0-3,0.8-3,2.5c0,1.3,0.8,2,2.2,2.2l1.5,0.2
			c0.7,0.1,1,0.4,1,0.8c0,0.6-0.5,0.8-1.2,0.8c-0.8,0-1.7-0.2-2.5-0.5l-0.7-0.2l-0.3,1.6l0.7,0.2c1,0.3,1.8,0.5,2.8,0.5
			c1.7,0,3-0.8,3-2.5c0-1.3-0.8-2-2.2-2.2L337.8,20.7z M328.7,19.5c0.8-0.2,1.1-0.2,1.5-0.2c1,0,1.3,0.6,1.3,1.3v5h2v-5.1
			c0-1.6-0.9-2.8-3.2-2.8c-0.7,0-1.5,0.1-2.6,0.4c-0.7,0.2-1,0.5-1,1.2v6.3h2V19.5z M323.4,20.9h-3.5c0.1-1.2,0.7-1.9,1.7-1.9
			C322.9,19,323.4,19.8,323.4,20.9 M318,21.6c0,2.7,1.6,4,3.9,4c0.8,0,1.5-0.1,2.5-0.5l0.8-0.2l-0.3-1.5l-0.8,0.2
			c-0.8,0.3-1.5,0.4-2.1,0.4c-1.2,0-2-0.6-2.1-1.8h4.5c0.6,0,0.8-0.3,0.8-0.8c0-2.6-1.4-3.9-3.6-3.9C319.7,17.5,318,18.8,318,21.6
			 M313.4,19.3c1,0,1.3,0.6,1.3,1.3v5h2v-5.1c0-1.6-0.7-2.8-2.9-2.8c-0.6,0-1.2,0.1-1.8,0.3v-3.5l-2,0.4v10.8h2v-6
			C312.7,19.3,313.1,19.3,313.4,19.3 M306.6,20.9h-3.5c0.1-1.2,0.7-1.9,1.7-1.9C306.1,19,306.6,19.8,306.6,20.9 M301.2,21.6
			c0,2.7,1.6,4,3.9,4c0.8,0,1.6-0.1,2.5-0.5l0.8-0.2l-0.3-1.5l-0.8,0.2c-0.8,0.3-1.5,0.4-2.1,0.4c-1.2,0-2-0.6-2.1-1.8h4.6
			c0.6,0,0.8-0.3,0.8-0.8c0-2.6-1.4-3.9-3.6-3.9C302.9,17.5,301.2,18.8,301.2,21.6 M300.6,17.6c-1.5,0-2.4,0.1-3.5,0.4
			c-0.7,0.2-1,0.5-1,1.3v6.3h2v-6c0.7-0.2,1.5-0.3,2.5-0.3V17.6z M289.4,27.8v-2.6c0.6,0.2,1.2,0.3,1.7,0.3c2.3,0,3.5-1.5,3.5-4
			c0-2.5-1.4-4-3.8-4c-0.7,0-1.4,0.1-2.5,0.4c-0.7,0.2-1,0.6-1,1.2v9L289.4,27.8z M290.9,24c-0.3,0-0.7,0-1.5-0.3v-4.3
			c0.5-0.1,0.9-0.2,1.4-0.2c1.3,0,1.9,0.9,1.9,2.4C292.7,23.1,292.2,24,290.9,24 M276.8,19.5c0.6-0.2,1-0.2,1.3-0.2
			c0.9,0,1.2,0.5,1.2,1.2v5h2v-5.1c0-0.4-0.1-0.6-0.1-0.8c0.4-0.1,0.8-0.3,1.4-0.3c0.9,0,1.2,0.5,1.2,1.2v5h2v-5.2
			c0-1.6-0.8-2.8-2.9-2.8c-0.9,0-1.8,0.3-2.5,0.6c-0.5-0.4-1.1-0.6-2.1-0.6c-0.7,0-1.5,0.1-2.4,0.4c-0.7,0.2-1,0.5-1,1.2v6.3h2V19.5
			z M271.5,21.6c0,1.7-0.6,2.6-1.8,2.6c-1.2,0-1.9-0.9-1.9-2.6c0-1.6,0.6-2.6,1.8-2.6C270.8,19,271.5,19.9,271.5,21.6 M273.5,21.6
			c0-2.6-1.5-4-3.8-4c-2.4,0-3.9,1.5-3.9,4c0,2.6,1.4,4,3.8,4C271.9,25.6,273.5,24.2,273.5,21.6 M256.2,20.2c0,3.7,2.1,5.4,5,5.4
			c1,0,1.9-0.2,3-0.5l0.8-0.3l-0.3-1.9l-0.9,0.3c-0.8,0.3-1.6,0.4-2.3,0.4c-1.8,0-2.8-1.1-2.8-3.4c0-2.4,1-3.5,2.8-3.5
			c0.7,0,1.4,0.2,2.3,0.4l0.9,0.3l0.3-1.9l-0.8-0.3c-1-0.3-2-0.5-2.9-0.5C258.3,14.8,256.2,16.6,256.2,20.2"/>
	</g>
	<g>
		<g>
			<g>
				<path class="st9" d="M64.8,50.2h-1.7V33.8c0-0.9,0.5-1.3,1.2-1.3c0.6,0,1,0.3,1.3,0.7L75,47.7v-15h1.7V49c0,0.9-0.5,1.3-1.2,1.3
					c-0.6,0-1-0.3-1.3-0.8l-9.3-14.4V50.2z"/>
				<path class="st9" d="M78.4,43.8c0-4.6,2.7-6.6,5.8-6.6c3.4,0,5.7,2,5.7,6.3c0,0.7-0.3,1.1-1,1.1h-8.7c0.1,2.8,2,4.1,4.4,4.1
					c0.9,0,1.9-0.2,3.5-0.7l1.3-0.4l0.4,1.5l-1.2,0.4c-1.7,0.6-2.8,0.8-4,0.8C80.9,50.3,78.4,48.2,78.4,43.8z M84.2,38.7
					c-2.3,0-3.8,1.7-4,4.3h7.9C88.1,40.7,86.9,38.7,84.2,38.7z"/>
				<path class="st9" d="M98.7,49.9c-1.3,0.3-2.1,0.4-2.7,0.4c-2.5,0-3.7-1.4-3.7-4v-7.1h-2v-1.6h2v-3.2l1.7-0.4v3.6h4.3v1.6H94v6.9
					c0,1.8,0.5,2.6,2,2.6c0.5,0,1.1-0.1,2.4-0.4L98.7,49.9z"/>
				<path class="st9" d="M113.6,49.3c-0.1,0.7-0.6,1.1-1.3,1.1c-0.7,0-1.1-0.3-1.3-1l-3.2-9.9l-3.4,10c-0.2,0.6-0.7,0.9-1.3,0.9
					c-0.7,0-1.2-0.4-1.3-1l-2.4-11.9h1.8l2,11l3.5-10.3c0.2-0.5,0.5-0.8,1.1-0.8c0.6,0,0.9,0.3,1.1,0.8l3.5,10.3l2.1-11h1.8
					L113.6,49.3z"/>
				<path class="st9" d="M122.9,50.3c-3.6,0-5.9-2.4-5.9-6.5c0-4.2,2.4-6.5,6-6.5c3.6,0,5.9,2.3,5.9,6.5
					C128.9,48,126.5,50.3,122.9,50.3z M122.9,38.8c-2.7,0-4.1,1.9-4.1,5c0,3.2,1.5,5,4.2,5c2.7,0,4.2-1.8,4.2-5
					C127.1,40.6,125.6,38.8,122.9,38.8z"/>
				<path class="st9" d="M136.9,39c-1.6,0-3,0.1-4.6,0.5v10.7h-1.7V39.6c0-0.9,0.5-1.5,1.4-1.7c1.8-0.5,2.9-0.6,5-0.6V39z"/>
				<path class="st9" d="M146.7,50.2l-3.8-7.1l-1.5,1.5c-1,0.9-1.7,1.7-1.7,3.4v2.2H138V32.5l1.7-0.4v12.4l6.5-7.1h2.3l-4.2,4.5
					l4.5,8.3H146.7z"/>
			</g>
			<g>
				<path class="st9" d="M63.1,28.5V10.8h3.9v17.6H63.1z"/>
				<path class="st9" d="M69,22.1v-2.6h8v2.6H69z"/>
				<path class="st9" d="M97.5,28.5H94V15.6l-3.8,11.6c-0.3,0.9-0.9,1.4-2.1,1.4c-1.1,0-1.8-0.5-2.1-1.4l-3.7-11.6v12.9h-3.3V13.1
					c0-1.6,1.2-2.4,2.9-2.4c2,0,2.8,1,3.2,2.3l3.2,10.1L91.5,13c0.4-1.3,1.2-2.3,3.1-2.3c1.7,0,2.8,0.8,2.8,2.4V28.5z"/>
				<path class="st9" d="M102,28.5c-1.4,0-2.2-0.8-2.2-2.1V12.9c0-1.3,0.8-2.1,2.2-2.1h10.2v2.9h-8.5v4.3h7.5v2.8h-7.5v4.7h8.6v2.9
					H102z"/>
				<path class="st9" d="M120.5,28.5H116c-1.4,0-2.2-0.8-2.2-2.1V12.9c0-1.3,0.8-2.1,2.2-2.1h4.6c5.1,0,8.3,3.3,8.3,8.9
					C128.8,25.3,125.5,28.5,120.5,28.5z M120.3,13.8h-2.7v11.7h2.8c2.9,0,4.6-2,4.6-5.8C125,16.1,123.3,13.8,120.3,13.8z"/>
			</g>
			<path class="st9" d="M147.7,27.6l-2.8-6.5h-3.9v6.5h-3.9V12c0-1.2,0.9-2.1,2.2-2.1h6.1c3.4,0,5.5,1.8,5.5,5.1
				c0,1.4-0.6,2.6-1.4,3.7l-1.1,1.3l3.4,7.6H147.7z M144.9,12.7h-3.8v5.6h4.6l0.7-1c0.5-0.6,0.9-1.4,0.9-2.2
				C147.2,13.7,146.6,12.7,144.9,12.7z"/>
			<path class="st9" d="M163.7,27.9l-1.1-0.6c-0.6-0.3-1.2-0.4-1.9-0.2l-0.8,0.2c-1.1,0.3-2.4,0.5-3.3,0.5c-2.8,0-4.6-1.4-4.6-3.8
				c0-3.4,2.9-4.1,6.2-4.1h2.2V19c0-1.4-0.9-1.9-2.3-1.9c-1,0-2.5,0.3-3.9,0.7l-1.3,0.4l-0.4-2.6l1.2-0.4c1.7-0.5,3.2-0.8,4.7-0.8
				c2.9,0,5.1,1.2,5.1,4.5v6l1.4,0.9L163.7,27.9z M160.3,22.1h-2.8c-1.5,0-2.4,0.5-2.4,1.7c0,1,0.7,1.5,2,1.5c0.5,0,1.4-0.1,2.2-0.3
				l1-0.3V22.1z"/>
		</g>
		<path class="st9" d="M176.9,8.9v15.9c0,1.1-0.5,1.7-1.6,2c-1.8,0.5-3,0.6-4.1,0.6c-3.9,0-6.2-2.4-6.2-6.6c0-4.2,2-6.6,5.8-6.6
			c0.9,0,1.9,0.2,2.8,0.5V9.5C174.7,9.3,175.8,9.1,176.9,8.9z M168.2,20.8c0,2.4,0.9,4,3.2,4c0.7,0,1.2-0.1,2.3-0.3v-7.2
			c-1.3-0.4-1.9-0.4-2.4-0.5C169,16.9,168.2,18.3,168.2,20.8z"/>
		<path class="st9" d="M180.5,12.6c-1.2,0-1.9-0.7-1.9-1.8c0-1.1,0.7-1.8,1.9-1.8s1.9,0.7,1.9,1.8C182.4,11.9,181.7,12.6,180.5,12.6
			z M178.9,27.3v-13h3.2v13H178.9z"/>
		<path class="st9" d="M189.8,27.5c-3.9,0-6.3-2.4-6.3-6.6c0-4.3,2.5-6.7,6.4-6.7c3.9,0,6.3,2.4,6.3,6.7
			C196.2,25.1,193.7,27.5,189.8,27.5z M189.8,16.6c-2,0-3,1.5-3,4.2c0,2.8,1.1,4.2,3.1,4.2c2,0,3-1.5,3-4.2
			C192.9,18.1,191.8,16.6,189.8,16.6z"/>
		<path class="st9" d="M197.6,27.3V9.6l3.3-0.6v18.4H197.6z"/>
		<path class="st9" d="M208.7,27.5c-3.9,0-6.3-2.4-6.3-6.6c0-4.3,2.5-6.7,6.4-6.7c3.9,0,6.3,2.4,6.3,6.7
			C215.1,25.1,212.6,27.5,208.7,27.5z M208.7,16.6c-2,0-3,1.5-3,4.2c0,2.8,1.1,4.2,3.1,4.2c2,0,3-1.5,3-4.2
			C211.8,18.1,210.7,16.6,208.7,16.6z"/>
		<path class="st9" d="M217,25.4l1.1-1.4c0.3-0.4,0.4-0.7,0.4-1.1c0-0.5-0.2-0.9-0.8-1.3c-0.7-0.5-1.8-1.4-1.8-3.2
			c0-2.8,2.3-4.2,5.7-4.2h1.3c1.1,0,1.9-0.1,2.4-0.3l3.1-0.9l0.6,2.4l-2.4,0.7c0,0,0.9,0.7,0.9,2.2c0,2.7-2.2,4-5.7,4
			c-0.7,0-1.1-0.1-1.1-0.1c0.1,0.1,0.2,0.4,0.2,0.7c0,0.4-0.1,0.8-0.4,1.1h3.7c3,0,4.4,1.3,4.4,3.3c0,2.6-2.2,4.1-6.7,4.1
			c-3.3,0-6-1-6-3.7C216.1,26.8,216.5,26,217,25.4z M224.2,26.5h-4.7c-0.3,0.3-0.5,0.8-0.5,1.4c0,1.2,1.2,1.6,3.2,1.6
			c2.5,0,3.7-0.6,3.7-1.8C225.9,26.9,225.4,26.5,224.2,26.5z M221.8,16.6c-1.6,0-2.7,0.5-2.7,1.9c0,1.5,1.1,2,2.7,2
			c1.6,0,2.8-0.6,2.8-2C224.5,17.1,223.4,16.6,221.8,16.6z"/>
		<path class="st9" d="M230.5,31.1l0.4-2.5c0.9,0.3,1.6,0.4,2.3,0.4c1.1,0,1.4-0.5,1.6-1.1l0.2-0.5l-5.1-13.1h3.6l3.1,9.3l2.7-9.3
			h3.4l-4.5,13.4c-0.9,2.6-2,4-4.6,4C232.6,31.6,231.7,31.5,230.5,31.1z"/>
	</g>
</g>
</svg>
